<?xml version="1.0" encoding="UTF-8"?>
<svg version="1.1" viewBox="0 0 44 44" xmlns="http://www.w3.org/2000/svg">
<g fill="none" fill-rule="evenodd">
<g transform="translate(-338 -335)">
<rect width="1440" height="1024" fill="#fff"/>
<g transform="translate(287 157)" fill="#000" fill-rule="nonzero">
<g transform="translate(51 178)">
<path d="m30.413 10.862c-0.59426-0.55545-1.3698-0.86167-2.1836-0.86167h-16.644c-0.8738 0-1.5851 0.71129-1.5851 1.5851v21.83c0 0.8738 0.71129 1.5851 1.5851 1.5851h21.83c0.8738 0 1.5851-0.71129 1.5851-1.5851v-16.879c0-0.88229-0.36989-1.7337-1.0151-2.337l-3.5722-3.3375zm3.3745 22.553c0 0.20556-0.16676 0.37232-0.37232 0.37232h-21.83c-0.20556 0-0.37232-0.16676-0.37232-0.37232v-21.83c0-0.20556 0.16676-0.37232 0.37232-0.37232h16.644c0.50512 0 0.98659 0.1898 1.3553 0.53483l3.5728 3.3381c0.40021 0.37414 0.63003 0.90291 0.63003 1.4511v16.878z"/>
<rect x="17" y="17" width="2" height="2"/>
<rect x="21" y="17" width="2" height="2"/>
<rect x="25" y="17" width="2" height="2"/>
<rect x="17" y="21" width="2" height="2"/>
<rect x="21" y="21" width="2" height="2"/>
<rect x="25" y="21" width="2" height="2"/>
<rect x="17" y="25" width="2" height="2"/>
<rect x="21" y="25" width="2" height="2"/>
<rect x="25" y="25" width="2" height="2"/>
<path d="m43.405 12.83c0.32881 0 0.59459-0.26578 0.59459-0.59459s-0.26578-0.59459-0.59459-0.59459h-5.0172v-2.6103c0-1.8855-1.5335-3.4189-3.4189-3.4189h-2.6103v-5.0166c0-0.32881-0.26578-0.59459-0.59459-0.59459s-0.59459 0.26578-0.59459 0.59459v5.0172h-5.3204v-5.0172c0-0.32881-0.26578-0.59459-0.59459-0.59459s-0.59459 0.26578-0.59459 0.59459v5.0172h-5.321v-5.0172c0-0.32881-0.26578-0.59459-0.59459-0.59459s-0.59459 0.26578-0.59459 0.59459v5.0172h-5.3204v-5.0172c0-0.32881-0.26578-0.59459-0.59459-0.59459s-0.59459 0.26578-0.59459 0.59459v5.0172h-2.6109c-1.8855 0-3.4189 1.5335-3.4189 3.4189v2.6103h-5.016c-0.32881 0-0.59459 0.26578-0.59459 0.59459s0.26578 0.59459 0.59459 0.59459h5.0166v5.3204h-5.0166c-0.32881 0-0.59459 0.26578-0.59459 0.59459s0.26578 0.59459 0.59459 0.59459h5.0166v5.321h-5.0166c-0.32881 0-0.59459 0.26578-0.59459 0.59459s0.26578 0.59459 0.59459 0.59459h5.0166v5.3204h-5.0166c-0.32881 0-0.59459 0.26578-0.59459 0.59459s0.26578 0.59459 0.59459 0.59459h5.0166v2.6103c0 1.8855 1.5335 3.4189 3.4189 3.4189h2.6109v5.0166c0 0.32881 0.26578 0.59459 0.59459 0.59459s0.59459-0.26578 0.59459-0.59459v-5.0172h5.3204v5.0172c0 0.32881 0.26578 0.59459 0.59459 0.59459s0.59459-0.26578 0.59459-0.59459v-5.0172h5.321v5.0172c0 0.32881 0.26578 0.59459 0.59459 0.59459s0.59459-0.26578 0.59459-0.59459v-5.0172h5.3204v5.0172c0 0.32881 0.26578 0.59459 0.59459 0.59459s0.59459-0.26578 0.59459-0.59459v-5.0172h2.6103c1.8855 0 3.4189-1.5335 3.4189-3.4189v-2.6103h5.0166c0.32881 0 0.59459-0.26578 0.59459-0.59459s-0.26578-0.59459-0.59459-0.59459h-5.0172v-5.3204h5.0172c0.32881 0 0.59459-0.26578 0.59459-0.59459s-0.26578-0.59459-0.59459-0.59459h-5.0172v-5.321h5.0172c0.32881 0 0.59459-0.26578 0.59459-0.59459s-0.26578-0.59459-0.59459-0.59459h-5.0172v-5.3204h5.0172zm-6.2058 22.14c0 1.229-1.0007 2.2297-2.2297 2.2297h-25.94c-1.229 0-2.2297-1.0007-2.2297-2.2297v-25.939c0-1.229 1.0007-2.2297 2.2297-2.2297h25.94c1.229 0 2.2297 1.0007 2.2297 2.2297v25.939z"/>
</g>
</g>
</g>
</g>
</svg>
