<?xml version="1.0" encoding="UTF-8"?>
<svg version="1.1" viewBox="0 0 32 42" xmlns="http://www.w3.org/2000/svg">
<g fill="none" fill-rule="evenodd">
<g transform="translate(-448 -335)">
<rect width="1440" height="1024" fill="#fff"/>
<g transform="translate(287 157)" fill="#000" fill-rule="nonzero">
<g transform="translate(161 178)">
<path d="m28.444 0h-24.889c-1.9556 0-3.5556 1.575-3.5556 3.5v35c0 1.925 1.6 3.5 3.5556 3.5h24.889c1.9556 0 3.5556-1.575 3.5556-3.5v-35c0-1.925-1.6-3.5-3.5556-3.5zm1.7778 38.5c0 0.966-0.79822 1.75-1.7778 1.75h-12.444v-2.9855c0-0.9625-0.63822-2.2242-1.4187-2.807l-2.2133-1.6468 3.136-3.0852c0.16533 0.00525 0.32889 0.0245 0.496 0.0245 6.8729 0 12.444-5.4845 12.444-12.25s-5.5716-12.25-12.444-12.25c-6.8729 0-12.444 5.4845-12.444 12.25 0 5.8432 4.1582 10.722 9.7191 11.946l-2.336 2.2995-5.9627-4.4398c-0.78222-0.581-2.2204-1.0552-3.1982-1.0552l0.0053333 1.75c0.58667 0.00175 1.6533 0.35525 2.1173 0.70175l5.7671 4.2928-2.2969 2.261c-0.34667 0.34125-0.34667 0.896 0 1.2372 0.17422 0.1715 0.40178 0.25725 0.62933 0.25725s0.45511-0.08575 0.62933-0.2555l2.4729-2.4342 2.4071 1.792c0.33244 0.25025 0.71289 1.0028 0.71289 1.4122v2.9855h-10.667c-0.97956 0-1.7778-0.784-1.7778-1.75v-12.25-22.75c0-0.96425 0.79822-1.75 1.7778-1.75h24.889c0.97956 0 1.7778 0.78575 1.7778 1.75v35zm-6.4818-18.12c-0.34667-0.34125-0.91022-0.34125-1.2569 0l-7.6693 7.5495c-5.3262-0.58275-9.4809-5.0348-9.4809-10.43 0-5.7908 4.784-10.5 10.667-10.5s10.667 4.7092 10.667 10.5c0 5.3392-4.0693 9.7475-9.3138 10.406l6.3876-6.2878c0.34667-0.34125 0.34667-0.89425 0-1.2372z"/>
<circle cx="5" cy="4" r="1"/>
<circle cx="28" cy="4" r="1"/>
<circle cx="16" cy="18" r="1"/>
<circle cx="5" cy="38" r="1"/>
<circle cx="28" cy="38" r="1"/>
<path d="m16.5 13c-2.4858 0-4.5 2.0142-4.5 4.5s2.0142 4.5 4.5 4.5 4.5-2.0142 4.5-4.5-2.0142-4.5-4.5-4.5zm0 7.2c-1.4886 0-2.7-1.2114-2.7-2.7s1.2114-2.7 2.7-2.7 2.7 1.2114 2.7 2.7-1.2114 2.7-2.7 2.7z"/>
</g>
</g>
</g>
</g>
</svg>
