<?xml version="1.0" encoding="UTF-8"?>
<svg version="1.1" viewBox="0 0 44 25" xmlns="http://www.w3.org/2000/svg">
<g fill="none" fill-rule="evenodd">
<g transform="translate(-545 -343)">
<rect width="1440" height="1024" fill="#fff"/>
<g transform="translate(287 157)" fill="#000" fill-rule="nonzero">
<g transform="translate(258 186)">
<path d="m15.783 13.248h4.1609v-7.8435h-4.1609v7.8435zm0.95652-6.9348h2.2478v5.9783h-2.2478v-5.9783z"/>
<path d="m7.4609 13.248h4.1609v-7.8435h-4.1609v7.8435zm0.95652-6.9348h2.2478v5.9783h-2.2478v-5.9783z"/>
<path d="m24.057 13.248h4.1609v-7.8435h-4.1609v7.8435zm0.95652-6.9348h2.2478v5.9783h-2.2478v-5.9783z"/>
<path d="m32.378 13.248h4.1609v-7.8435h-4.1609v7.8435zm0.95652-6.9348h2.2478v5.9783h-2.2478v-5.9783z"/>
<path d="m43.57 6.1217l0.28696-0.095652v-5.9304h-43.713v5.8826l0.28696 0.095652c1.3169 0.51815 2.1826 1.7892 2.1826 3.2043 0 1.4151-0.86578 2.6862-2.1826 3.2043l-0.28696 0.095652v12.196h43.713v-12.1l-0.28696-0.095652c-1.3169-0.51815-2.1826-1.7892-2.1826-3.2043 0-1.4151 0.86578-2.6862 2.1826-3.2043v-0.047826zm-0.66957 17.696h-41.8v-5.2609h41.8v5.2609zm-2.5348-14.491c0.0060116 1.7021 0.99318 3.248 2.5348 3.9696v4.3043h-41.8v-4.3043c1.5288-0.731 2.502-2.275 2.502-3.9696 0-1.6946-0.97315-3.2386-2.502-3.9696v-4.3043h41.8v4.3043c-1.5416 0.72153-2.5288 2.2675-2.5348 3.9696z"/>
</g>
</g>
</g>
</g>
</svg>
