<?xml version="1.0" standalone="no"?>
<!DOCTYPE svg PUBLIC "-//W3C//DTD SVG 20010904//EN"
 "http://www.w3.org/TR/2001/REC-SVG-20010904/DTD/svg10.dtd">
<svg version="1.0" xmlns="http://www.w3.org/2000/svg"
 width="512.000000pt" height="512.000000pt" viewBox="0 0 512.000000 512.000000"
 preserveAspectRatio="xMidYMid meet">
<metadata>
Created by potrace 1.11, written by Peter Selinger 2001-2013
</metadata>
<g transform="translate(0.000000,512.000000) scale(0.100000,-0.100000)"
fill="#000000" stroke="none">
<path d="M1405 4413 c-22 -38 -47 -81 -56 -98 -9 -16 -37 -65 -63 -108 -25
-43 -46 -81 -46 -85 0 -3 -6 -13 -14 -21 -7 -9 -26 -38 -41 -66 -42 -78 -144
-255 -175 -305 -15 -25 -164 -281 -330 -570 -166 -289 -313 -542 -326 -563
-21 -31 -23 -41 -13 -60 7 -12 69 -121 139 -242 70 -121 137 -236 148 -255
168 -292 278 -482 298 -512 13 -21 24 -40 24 -42 0 -2 26 -49 58 -103 32 -54
61 -105 65 -113 4 -8 16 -28 26 -45 16 -25 100 -171 309 -532 l36 -63 1116 0
1116 0 99 172 c55 94 101 177 103 185 2 7 8 13 13 13 5 0 9 4 9 9 0 6 29 60
65 121 36 61 76 130 89 153 13 23 112 194 220 380 215 370 355 612 452 782
l63 109 -31 56 c-52 92 -55 97 -393 680 -335 577 -360 620 -379 655 -6 11 -18
31 -27 45 -9 14 -76 130 -150 258 l-133 232 -1116 0 -1116 0 -39 -67z m2044
-339 c5 -5 23 -34 39 -64 17 -30 101 -176 187 -325 86 -148 167 -288 179 -310
13 -22 120 -206 238 -410 118 -203 220 -379 226 -391 9 -17 4 -32 -30 -90 -22
-38 -50 -87 -63 -109 -12 -22 -64 -112 -115 -200 -52 -88 -100 -171 -107 -185
-7 -14 -136 -236 -286 -493 l-272 -468 -860 0 c-473 0 -871 0 -885 1 -26 0
-39 19 -148 210 -11 19 -89 155 -174 301 -85 147 -158 273 -161 280 -4 8 -15
28 -26 44 -29 48 -201 344 -238 410 -19 33 -39 69 -46 80 -17 27 -48 81 -85
146 l-31 55 75 130 c42 71 86 147 98 169 51 90 651 1124 681 1175 l33 55 882
-1 c513 0 884 -5 889 -10z"/>
<path d="M1998 3567 c22 -37 84 -143 118 -202 12 -22 122 -211 243 -420 l220
-380 596 -1 c327 0 595 2 595 4 0 2 -50 90 -112 195 -61 106 -119 206 -128
222 -9 17 -67 116 -127 220 -146 252 -157 270 -195 337 l-32 56 -598 0 -599 0
19 -31z"/>
<path d="M1870 3483 c-30 -52 -62 -107 -70 -122 -12 -21 -94 -162 -135 -233
-5 -10 -48 -84 -95 -164 -47 -81 -95 -165 -108 -188 -13 -22 -35 -58 -48 -78
-13 -21 -24 -40 -24 -43 0 -3 -16 -31 -35 -61 l-35 -55 292 -504 c161 -278
298 -506 303 -507 10 -1 205 326 205 343 0 5 5 9 10 9 6 0 10 4 10 9 0 5 39
76 86 158 48 81 94 162 104 178 110 194 175 302 185 310 10 9 -35 94 -207 390
-121 209 -230 398 -243 420 -69 121 -127 221 -133 227 -4 4 -32 -36 -62 -89z"/>
<path d="M2545 2485 c-7 -11 -73 -123 -146 -250 -73 -126 -201 -349 -286 -494
-84 -145 -153 -264 -153 -265 0 -1 270 -1 601 0 l601 0 57 100 c32 54 164 283
294 507 131 224 237 411 237 415 0 4 -268 7 -596 7 -586 0 -597 0 -609 -20z"/>
</g>
</svg>
