<?xml version="1.0" standalone="no"?>
<!DOCTYPE svg PUBLIC "-//W3C//DTD SVG 20010904//EN"
 "http://www.w3.org/TR/2001/REC-SVG-20010904/DTD/svg10.dtd">
<svg version="1.0" xmlns="http://www.w3.org/2000/svg"
 width="512.000000pt" height="512.000000pt" viewBox="0 0 512.000000 512.000000"
 preserveAspectRatio="xMidYMid meet">
<metadata>
Created by potrace 1.11, written by Peter Selinger 2001-2013
</metadata>
<g transform="translate(0.000000,512.000000) scale(0.100000,-0.100000)"
fill="#000000" stroke="none">
<path d="M1274 4200 c-136 -20 -260 -83 -359 -184 -63 -65 -100 -124 -389
-620 -364 -626 -369 -637 -369 -811 -1 -171 6 -186 371 -813 262 -451 327
-556 377 -607 106 -110 230 -174 379 -194 87 -12 636 -15 636 -3 0 4 -42 79
-94 167 l-93 160 -154 6 c-133 5 -164 9 -225 32 -112 42 -163 75 -244 156 -68
69 -95 110 -287 441 -117 201 -222 387 -233 413 -64 144 -64 339 0 484 11 27
116 212 233 412 230 395 268 447 389 527 115 77 186 97 367 103 l154 6 93 160
c52 88 94 163 94 168 0 9 -579 7 -646 -3z"/>
<path d="M2495 4194 c-38 -8 -108 -34 -155 -56 -69 -33 -100 -56 -165 -122
-76 -78 -94 -107 -390 -622 -192 -335 -319 -565 -333 -609 -45 -132 -38 -326
16 -449 25 -54 584 -1025 633 -1097 45 -67 134 -150 203 -190 28 -16 87 -41
131 -56 l80 -28 635 -3 c660 -3 704 -1 828 39 81 27 199 106 258 172 45 52
605 1007 669 1142 36 75 65 197 65 269 0 67 -27 192 -53 250 -28 61 -584 1028
-630 1096 -75 109 -194 198 -332 247 l-80 28 -655 2 c-550 2 -666 -1 -725 -13z
m1317 -372 c72 -29 147 -85 192 -143 41 -52 426 -717 466 -804 16 -33 31 -77
34 -97 l7 -38 -608 0 -608 0 -354 521 c-244 361 -349 525 -342 532 6 6 41 21
78 34 l68 23 505 -3 c502 -2 505 -2 562 -25z m-1043 -848 l272 -412 -341 -513
c-187 -283 -344 -515 -349 -517 -15 -5 -46 46 -263 432 -122 216 -220 401
-234 443 -30 90 -33 221 -6 299 20 56 440 810 481 861 l25 32 71 -107 c40 -59
194 -292 344 -518z"/>
</g>
</svg>
