<?xml version="1.0" standalone="no"?>
<!DOCTYPE svg PUBLIC "-//W3C//DTD SVG 1.1//EN" "http://www.w3.org/Graphics/SVG/1.1/DTD/svg11.dtd">
<svg width="100%" height="100%" viewBox="0 0 415 60" version="1.1" xmlns="http://www.w3.org/2000/svg" xmlns:xlink="http://www.w3.org/1999/xlink" xml:space="preserve" style="fill-rule:evenodd;clip-rule:evenodd;stroke-linejoin:round;stroke-miterlimit:1.41421;">
    <g id="Page-1">
        <path id="Fill-1" d="M61.79,45.652L61.79,39.981C63.939,41.382 66.213,42.366 68.612,42.932C71.011,43.498 73.045,43.781 74.714,43.781C77.42,43.781 79.368,43.344 80.557,42.471C81.747,41.598 82.342,40.509 82.342,39.204C82.342,38.341 82.064,37.602 81.507,36.988C80.951,36.374 79.569,35.616 77.362,34.714L75.52,33.966L71.807,32.498C67.816,30.943 65.302,29.504 64.265,28.18C63.21,26.875 62.682,25.282 62.682,23.402C62.682,20.754 63.704,18.576 65.753,16.868C67.799,15.16 71.116,14.306 75.71,14.306C79.149,14.306 82.404,14.805 85.479,15.803L85.479,20.667C81.944,19.401 78.617,18.767 75.503,18.767C73.234,18.767 71.462,19.166 70.183,19.962C68.905,20.758 68.266,21.751 68.266,22.941C68.266,24.093 68.823,25.014 69.936,25.704C71.03,26.395 72.817,27.192 75.295,28.094L78.926,29.418C82.248,30.627 84.58,31.941 85.918,33.361C87.257,34.781 87.926,36.556 87.926,38.686C87.926,41.469 86.856,43.757 84.717,45.551C82.577,47.345 79.157,48.243 74.455,48.243C70.349,48.243 66.127,47.379 61.79,45.652" style="fill:rgb(101,51,159);"/>
        <path id="Fill-3" d="M98.145,47.35L92.906,15.198L97.893,15.198L100.949,34.771L101.757,39.319L102.532,34.771L107.644,15.198L112.451,15.198L118.248,34.771L119.258,39.319L119.918,34.771L122.993,15.198L127.102,15.198L121.892,47.35L116.884,47.35L110.724,26.654L109.745,22.106L109.601,22.106L108.709,26.625L103.355,47.35L98.145,47.35Z" style="fill:rgb(101,51,159);"/>
        <path id="Fill-5" d="M153.324,33.752L153.324,19.948C151.419,19.449 149.652,19.199 148.018,19.199C144.713,19.199 141.959,20.478 139.757,23.032C137.557,25.587 136.456,29.065 136.456,33.464C136.456,36.654 137.056,39.06 138.258,40.684C139.46,42.308 140.829,43.119 142.367,43.119C144.039,43.119 145.886,42.275 147.903,40.583C149.923,38.892 151.729,36.616 153.324,33.752M153.302,40.157C151.671,42.833 149.707,44.851 147.414,46.206C145.12,47.564 143.014,48.243 141.093,48.243C138.407,48.243 135.993,47.082 133.851,44.76C131.712,42.438 130.642,38.916 130.642,34.196C130.642,30.473 131.352,27.148 132.774,24.222C134.197,21.296 136.099,18.983 138.481,17.285C140.863,15.587 143.811,14.738 147.327,14.738C148.347,14.738 149.879,14.843 151.928,15.054C152.235,15.093 152.693,15.141 153.307,15.198L158.678,15.198L158.678,37.902C158.678,41.783 159.09,44.93 159.916,47.35L154.331,47.35C153.9,45.592 153.557,43.196 153.302,40.157" style="fill:rgb(101,51,159);"/>
        <path id="Fill-7" d="M170.278,47.35L170.278,15.198L175.632,15.198L175.632,22.221C177.301,19.573 179.216,17.592 181.374,16.277C183.533,14.963 185.937,14.306 188.585,14.306C190.523,14.306 192.461,14.603 194.399,15.198L194.399,26.798L189.247,26.798L189.247,19.458C188.345,19.304 187.635,19.228 187.117,19.228C185.121,19.228 183.164,20.014 181.245,21.588C179.326,23.162 177.455,25.522 175.632,28.669L175.632,47.35L170.278,47.35Z" style="fill:rgb(101,51,159);"/>
        <path id="Fill-9" d="M200.502,47.35L200.502,15.198L205.194,15.198L205.194,22.567C206.671,19.439 208.048,17.28 209.324,16.09C210.6,14.9 211.891,14.306 213.196,14.306C214.75,14.306 216.002,14.915 216.952,16.133C217.902,17.352 218.377,19.084 218.377,21.329L218.377,23.056C219.01,21.099 219.773,19.511 220.665,18.292C221.558,17.074 222.484,16.105 223.443,15.385C224.403,14.665 225.506,14.306 226.753,14.306C228.135,14.306 229.315,14.891 230.294,16.061C231.272,17.232 231.762,19.564 231.762,23.056L231.762,47.35L227.07,47.35L227.07,25.388C227.07,23.584 227.012,22.351 226.897,21.689C226.782,21.027 226.552,20.523 226.206,20.178C225.861,19.832 225.487,19.659 225.084,19.659C224.086,19.659 223.016,20.422 221.874,21.948C220.733,23.473 219.567,26.002 218.377,29.533L218.377,47.35L213.915,47.35L213.915,25.416C213.915,22.576 213.637,20.907 213.081,20.408C212.519,19.909 212.018,19.659 211.577,19.659C210.593,19.659 209.54,20.513 208.413,22.221C207.288,23.929 206.213,26.117 205.194,28.784L205.194,47.35L200.502,47.35Z" style="fill:rgb(101,51,159);"/>
        <path id="Fill-11" d="M243.246,28.796L243.246,42.6C245.184,43.099 246.969,43.349 248.6,43.349C251.843,43.349 254.573,42.075 256.789,39.53C259.005,36.985 260.114,33.502 260.114,29.084C260.114,25.874 259.509,23.464 258.3,21.849C257.091,20.237 255.719,19.429 254.184,19.429C252.515,19.429 250.677,20.273 248.672,21.965C246.667,23.656 244.858,25.932 243.246,28.796ZM243.246,22.427C244.896,19.739 246.863,17.714 249.147,16.349C251.43,14.987 253.532,14.305 255.451,14.305C258.137,14.305 260.555,15.466 262.704,17.788C264.853,20.11 265.928,23.632 265.928,28.352C265.928,32.075 265.213,35.4 263.784,38.326C262.354,41.252 260.449,43.565 258.07,45.263C255.69,46.961 252.745,47.81 249.233,47.81C248.235,47.81 246.7,47.705 244.628,47.494C244.321,47.455 243.86,47.407 243.246,47.35L243.246,59.842L237.892,59.842L237.892,15.198L243.246,15.198L243.246,22.427Z" style="fill:rgb(101,51,159);"/>
        <path id="Fill-13" d="M281.817,3.584C281.817,2.38 282.23,1.483 283.05,0.888C283.87,0.298 284.647,0 285.372,0C286.12,0 286.902,0.298 287.723,0.888C288.548,1.483 288.956,2.38 288.956,3.584C288.956,4.769 288.548,5.659 287.723,6.251C286.902,6.844 286.12,7.139 285.372,7.139C284.647,7.139 283.87,6.844 283.05,6.251C282.23,5.659 281.817,4.769 281.817,3.584ZM282.681,47.351L282.681,19.66L273.757,19.66L273.757,15.198L288.034,15.198L288.034,42.889L296.986,42.889L296.986,47.351L282.681,47.351Z" style="fill:rgb(101,51,159);"/>
        <path id="Fill-15" d="M335.932,46.055C333.418,47.11 331.595,47.739 330.463,47.94C329.331,48.142 328.237,48.243 327.182,48.243C324.936,48.243 322.883,47.811 321.022,46.947C319.16,46.084 317.759,44.808 316.81,43.119C315.86,41.43 315.38,38.821 315.38,35.29L315.38,22.337L307.349,22.337L307.349,17.875L315.38,17.875L315.38,4.922L320.734,4.922L320.734,17.875L335.04,17.875L335.04,22.337L320.734,22.337L320.734,35.203C320.734,37.794 321.041,39.622 321.655,40.687C322.269,41.752 323.094,42.534 324.121,43.033C325.147,43.532 326.356,43.781 327.757,43.781C330.348,43.781 333.073,42.965 335.932,41.334L335.932,46.055Z" style="fill:rgb(101,51,159);"/>
        <path id="Fill-17" d="M356.155,48.703C355.275,48.703 354.52,48.388 353.889,47.757C353.259,47.127 352.944,46.372 352.944,45.492C352.944,44.599 353.262,43.84 353.899,43.216C354.536,42.592 355.288,42.28 356.155,42.28C357.022,42.28 357.774,42.592 358.411,43.216C359.048,43.84 359.366,44.599 359.366,45.492C359.366,46.372 359.051,47.127 358.421,47.757C357.79,48.388 357.035,48.703 356.155,48.703" style="fill:rgb(101,51,159);"/>
        <path id="Fill-19" d="M376.9,17.822C376.9,16.998 377.182,16.384 377.744,15.977C378.305,15.573 378.837,15.369 379.333,15.369C379.842,15.369 380.381,15.573 380.942,15.977C381.503,16.384 381.786,16.998 381.786,17.822C381.786,18.633 381.503,19.242 380.942,19.648C380.381,20.053 379.842,20.255 379.333,20.255C378.837,20.255 378.305,20.053 377.744,19.648C377.182,19.242 376.9,18.633 376.9,17.822ZM377.491,47.777L377.491,28.825L371.384,28.825L371.384,25.771L381.155,25.771L381.155,44.724L387.282,44.724L387.282,47.777L377.491,47.777Z" style="fill:rgb(101,51,159);"/>
        <g id="Group-23" transform="matrix(1,0,0,1,394,24.8426)">
            <path id="Fill-21" d="M10.59,20.492C12.544,20.492 14.097,19.73 15.253,18.207C16.405,16.683 16.983,14.588 16.983,11.922C16.983,9.269 16.405,7.181 15.253,5.657C14.097,4.134 12.544,3.372 10.59,3.372C8.623,3.372 7.064,4.134 5.908,5.657C4.755,7.181 4.177,9.269 4.177,11.922C4.177,14.588 4.755,16.683 5.908,18.207C7.064,19.73 8.623,20.492 10.59,20.492M10.59,23.546C7.441,23.546 4.923,22.446 3.031,20.246C1.143,18.046 0.198,15.271 0.198,11.922C0.198,8.573 1.143,5.802 3.031,3.608C4.923,1.415 7.441,0.318 10.59,0.318C13.726,0.318 16.238,1.415 18.129,3.608C20.017,5.802 20.963,8.573 20.963,11.922C20.963,15.271 20.017,18.046 18.129,20.246C16.238,22.446 13.726,23.546 10.59,23.546" style="fill:rgb(101,51,159);"/>
        </g>
        <g id="Group-26" transform="matrix(1,0,0,1,0,8.8426)">
            <path id="Fill-24" d="M35.399,40.068L15.283,40.068L5.225,22.647L15.283,5.226L35.399,5.226L45.457,22.647L35.399,40.068ZM38.011,0.702L12.671,0.702L0,22.647L12.671,44.593L38.011,44.593L50.682,22.647L38.011,0.702Z" style="fill:rgb(101,51,159);"/>
        </g>
        <path id="Fill-27" d="M18.157,19.79L11.345,31.588L11.209,31.588L18.021,43.386L24.833,31.588L24.969,31.588L18.157,19.79Z" style="fill:rgb(101,51,159);"/>
        <path id="Fill-29" d="M38.932,32.086L25.397,32.086L25.341,31.99L18.529,43.788L32.065,43.788L32.12,43.884L38.932,32.086Z" style="fill:rgb(101,51,159);"/>
        <path id="Fill-31" d="M32.352,19.648L32.385,19.592L18.761,19.592L25.54,31.333L25.508,31.39L39.131,31.39L32.352,19.648Z" style="fill:rgb(101,51,159);"/>
    </g>
</svg>
