<svg width="363" height="66" viewBox="0 0 363 66" fill="none" xmlns="http://www.w3.org/2000/svg">
<path d="M28.6 58.3C24.1 58.3 19.9 55.9 17.7 52L10.3 39.2C7.99998 35.3 7.99998 30.5 10.3 26.6L17.7 13.8C20 9.89999 24.1 7.5 28.6 7.5H31.9L35.7 0.899994H24.8C20.3 0.899994 16.1 3.30001 13.9 7.20001L2.69998 26.6C0.399976 30.5 0.399976 35.3 2.69998 39.2L13.9 58.6C16.2 62.5 20.3 64.9 24.8 64.9H35.7L31.9 58.3H28.6V58.3Z" fill="#BC4094"/>
<path d="M94.2 26.9L83 7.5C80.7 3.6 76.6 1.20001 72.1 1.20001H53.3H49.6C45.1 1.20001 40.9 3.6 38.7 7.5L38.5 7.79999L27.5 26.9C26.4 28.7 25.9 30.8 25.8 32.9V33C25.8 35.3 26.3 37.6 27.5 39.6L38.5 58.7L38.7 59C41 62.9 45.1 65.3 49.6 65.3H53.3H72.1C76.6 65.3 80.8 62.9 83 59L94.2 39.6C96.5 35.7 96.5 30.8 94.2 26.9Z" fill="#5D4695"/>
<path d="M87.6 37.9L78.7 53.3C76.9 56.4 73.6 58.3 70 58.3H55.1H52.2C48.6 58.3 45.3 56.4 43.5 53.3L43.4 53.1L34.6 37.9C33.7 36.3 33.2 34.5 33.3 32.7C33.3 32.7 33.3 32.7 33.3 32.6C33.3 31 33.8 29.3 34.6 27.9L43.4 12.7L43.5 12.5C45.3 9.4 48.6 7.5 52.2 7.5H55.1H70C73.6 7.5 76.9 9.4 78.7 12.5L87.6 27.9C89.4 31 89.4 34.8 87.6 37.9Z" fill="#5D4695"/>
<path d="M126.4 26C126.3 25.8 126.1 25.6 125.8 25.3C125.5 25 125 24.7 124.1 24.2C123.2 23.7 122.3 23.5 121.4 23.5C120.3 23.5 119.3 23.7 118.7 24.2C118 24.7 117.7 25.3 117.7 25.9C117.7 26.7 118.2 27.3 119.1 27.9C120 28.4 121.2 28.9 122.6 29.3C124 29.7 125.3 30.2 126.7 30.8C128.1 31.4 129.3 32.3 130.2 33.6C131.1 34.9 131.6 36.5 131.6 38.4C131.6 41.1 130.5 43.4 128.4 45.2C126.3 47 123.3 47.9 119.6 47.9C118 47.9 116.5 47.7 115 47.3C113.5 46.9 112.4 46.5 111.5 45.9C110.6 45.4 109.8 44.8 109.1 44.3C108.4 43.8 107.9 43.3 107.6 43L107.2 42.4L111.9 37.8C112.1 38 112.3 38.3 112.7 38.7C113.1 39.1 113.8 39.6 114.9 40.2C116 40.8 117.2 41.2 118.4 41.2C119.7 41.2 120.7 40.9 121.4 40.4C122.1 39.9 122.4 39.2 122.4 38.4C122.4 37.6 121.9 36.9 121 36.3C120.1 35.7 118.9 35.3 117.5 34.8C116.1 34.4 114.7 33.9 113.4 33.3C112 32.7 110.9 31.8 109.9 30.6C109 29.4 108.5 27.8 108.5 25.9C108.5 23.5 109.6 21.3 111.9 19.3C114.2 17.3 117 16.3 120.3 16.3C122.4 16.3 124.3 16.7 126.1 17.5C127.9 18.3 129.1 19.1 129.8 19.8L130.9 21L126.4 26Z" fill="#5D4695"/>
<path d="M160.8 17L166.7 35.3L172.6 17H181.2L170.9 47.3H163.6L157.7 30L151.8 47.3H144.5L134.1 17H142.8L148.7 35.3L154.6 17H160.8Z" fill="#5D4695"/>
<path d="M202.2 44.3C202 44.6 201.6 44.9 201.2 45.3C200.8 45.7 199.8 46.3 198.4 46.9C196.9 47.6 195.4 47.9 193.9 47.9C190.9 47.9 188.4 47.1 186.5 45.4C184.6 43.7 183.7 41.7 183.7 39.3C183.7 36.8 184.5 34.8 186.1 33.1C187.7 31.4 189.9 30.4 192.7 29.9L202.3 28.2C202.3 26.9 201.8 25.9 200.9 25.1C200 24.3 198.7 23.9 197 23.9C195.6 23.9 194.4 24.2 193.3 24.7C192.2 25.2 191.4 25.7 190.9 26.3L190.2 27L185.6 22.4C185.7 22.2 185.9 22 186.1 21.8C186.3 21.5 186.8 21.1 187.5 20.4C188.2 19.7 189 19.1 189.9 18.6C190.8 18.1 191.9 17.6 193.3 17.2C194.7 16.8 196.2 16.6 197.6 16.6C201.4 16.6 204.5 17.7 207 20C209.4 22.3 210.6 25.2 210.6 28.6V47.5H202.3V44.3H202.2ZM200.5 39.4C201.6 38.2 202.2 36.5 202.2 34.4V33.5L195.4 34.7C193.1 35.1 192 36.2 192 38.1C192 40.2 193.3 41.2 196 41.2C197.9 41.2 199.4 40.6 200.5 39.4Z" fill="#5D4695"/>
<path d="M236.8 25.1C236.2 24.9 235.2 24.8 234 24.8C231.8 24.8 230.1 25.5 228.8 26.9C227.5 28.3 226.9 30.3 226.9 32.9V47.4H218.6V17H226.9V20.7C227.1 20.4 227.5 20 227.9 19.6C228.3 19.1 229.3 18.5 230.8 17.8C232.3 17.1 233.9 16.7 235.5 16.7H236.7V25.1H236.8Z" fill="#5D4695"/>
<path d="M279.2 30.7C279.2 28.8 278.7 27.3 277.8 26.2C276.9 25.1 275.7 24.6 274.2 24.6C272.6 24.6 271.3 25.2 270.2 26.5C269.2 27.8 268.6 29.5 268.6 31.7V47.5H260.3V30.8C260.3 28.9 259.8 27.4 258.9 26.3C258 25.2 256.8 24.7 255.3 24.7C253.7 24.7 252.4 25.3 251.3 26.6C250.2 27.9 249.7 29.6 249.7 31.8V47.6H241.4V17H249.7V20.7C249.9 20.4 250.2 20 250.6 19.5C251 19 251.9 18.4 253.3 17.6C254.7 16.8 256.2 16.4 257.7 16.4C258.9 16.4 260 16.6 261.1 17C262.1 17.4 263 17.8 263.6 18.3C264.2 18.8 264.8 19.3 265.2 19.8C265.7 20.3 266 20.8 266.1 21.1L266.3 21.6C266.4 21.5 266.5 21.3 266.7 21C266.9 20.7 267.3 20.3 267.9 19.7C268.5 19.1 269.2 18.6 269.9 18.1C270.6 17.6 271.6 17.2 272.8 16.8C274 16.4 275.2 16.2 276.5 16.2C279.8 16.2 282.5 17.3 284.4 19.6C286.3 21.8 287.3 25.2 287.3 29.5V47.1H278.9V30.7H279.2Z" fill="#5D4695"/>
<path d="M311.4 16C309.8 16 308.3 16.3 306.9 16.8C305.5 17.3 304.4 17.9 303.5 18.5C302.6 19.1 301.8 19.8 301 20.6C301 20.6 301 20.6 300.9 20.7V16.7H296.1V61.4H300.9V44.4L301 44.5C301.7 45.2 302.5 45.9 303.3 46.5C304.2 47.2 305.4 47.8 306.8 48.2C308.2 48.7 309.7 48.9 311.3 48.9C315.2 48.9 318.7 47.3 321.7 44C324.7 40.8 326.2 36.9 326.2 32.4C326.2 27.9 324.7 24 321.7 20.8C318.8 17.7 315.3 16 311.4 16ZM321.5 32.5C321.5 35.7 320.5 38.4 318.3 40.8C316.2 43.1 313.9 44.2 311.3 44.2C308.6 44.2 306.2 43.1 304.1 40.8C301.9 38.5 300.9 35.8 300.9 32.5C300.9 29.2 301.9 26.5 304.1 24.2C306.2 21.9 308.6 20.8 311.4 20.8C314 20.8 316.3 21.9 318.4 24.2C320.5 26.6 321.5 29.3 321.5 32.5Z" fill="#5D4695"/>
<path d="M337.8 16.7H333V48.4H337.8V16.7Z" fill="#5D4695"/>
<path d="M335.5 4C334.6 4 333.8 4.29999 333.3 4.89999C332.7 5.49999 332.4 6.30001 332.4 7.20001C332.4 8.10001 332.7 8.9 333.3 9.5C333.9 10.1 334.7 10.4 335.5 10.4C336.4 10.4 337.1 10.1 337.7 9.5C338.3 8.9 338.6 8.10001 338.6 7.20001C338.6 6.30001 338.3 5.49999 337.7 4.89999C337.2 4.29999 336.4 4 335.5 4Z" fill="#5D4695"/>
<path d="M360.5 43.7C360.3 43.8 360 43.9 359.3 44.1C358.7 44.2 358.1 44.3 357.5 44.3C356.4 44.3 355.5 44 354.8 43.3C354.1 42.6 353.8 41.5 353.8 40.1V21.6H360.6V16.8H353.8V6.89999H349.3V15.3C349.3 15.8 349.2 16.2 348.9 16.4C348.7 16.6 348.4 16.8 348.1 16.8H342.3V21.6H349V40C349 42.8 349.7 45.1 351.2 46.7C352.7 48.3 354.9 49.1 357.5 49.1C359.1 49.1 360.5 48.8 361.8 48.1L362.3 47.8V42.9L360.5 43.7Z" fill="#5D4695"/>
<path d="M44.4 13C43.9 13.5 43.4 14.1 43 14.8L42.9 15L34.9 28.9C34.1 30.2 33.7 31.7 33.7 33.2C33.7 33.2 33.7 33.2 33.7 33.3C33.7 34.9 34.1 36.6 34.9 38.1L42.9 52L43 52.2C43.4 52.8 43.8 53.4 44.3 53.9L58.2 33.4L44.4 13Z" fill="#E8E0EC"/>
<path d="M87 30.2C86.8 29 86.5 27.8 85.9 26.8L77.8 12.7C76.2 9.90001 73.1 8.10001 69.9 8.10001H56.3H53.6C51.9 8.10001 50.3 8.59999 48.9 9.39999L62.9 30.1H87V30.2Z" fill="white"/>
<path d="M48.8 56.9C50.2 57.8 51.9 58.3 53.6 58.3H56.3H69.9C73.2 58.3 76.2 56.6 77.8 53.7L85.9 39.6C86.5 38.5 86.8 37.4 87 36.2H62.8L48.8 56.9Z" fill="#BB9AC9"/>
</svg>
