<?xml version="1.0" encoding="UTF-8"?>
<svg width="354px" height="180px" viewBox="0 0 354 180" version="1.1" xmlns="http://www.w3.org/2000/svg" xmlns:xlink="http://www.w3.org/1999/xlink">
    <!-- Generator: Sketch 43.1 (39012) - http://www.bohemiancoding.com/sketch -->
    <title>Artboard</title>
    <desc>Created with Sketch.</desc>
    <defs>
        <polygon id="path-1" points="21.172 0.3176 21.172 23.5456 0.4077 23.5456 0.4077 0.3176 21.172 0.3176"></polygon>
        <polygon id="path-3" points="113.9452 0.109 0.9672 0.109 0.9672 97.9507 113.9452 97.9507 113.9452 0.109"></polygon>
    </defs>
    <g id="Page-1" stroke="none" stroke-width="1" fill="none" fill-rule="evenodd">
        <g id="Artboard">
            <g id="Page-1">
                <path d="M0,165.7003 L0,160.0293 C2.149,161.4303 4.423,162.4143 6.822,162.9803 C9.221,163.5463 11.255,163.8293 12.924,163.8293 C15.63,163.8293 17.578,163.3923 18.767,162.5193 C19.957,161.6463 20.552,160.5573 20.552,159.2523 C20.552,158.3893 20.274,157.6503 19.717,157.0363 C19.161,156.4223 17.779,155.6643 15.572,154.7623 L13.73,154.0143 L10.017,152.5463 C6.026,150.9913 3.512,149.5523 2.475,148.2283 C1.42,146.9233 0.892,145.3303 0.892,143.4503 C0.892,140.8023 1.914,138.6243 3.963,136.9163 C6.009,135.2083 9.326,134.3543 13.92,134.3543 C17.359,134.3543 20.614,134.8533 23.689,135.8513 L23.689,140.7153 C20.154,139.4493 16.827,138.8153 13.713,138.8153 C11.444,138.8153 9.672,139.2143 8.393,140.0103 C7.115,140.8063 6.476,141.7993 6.476,142.9893 C6.476,144.1413 7.033,145.0623 8.146,145.7523 C9.24,146.4433 11.027,147.2403 13.505,148.1423 L17.136,149.4663 C20.458,150.6753 22.79,151.9893 24.128,153.4093 C25.467,154.8293 26.136,156.6043 26.136,158.7343 C26.136,161.5173 25.066,163.8053 22.927,165.5993 C20.787,167.3933 17.367,168.2913 12.665,168.2913 C8.559,168.2913 4.337,167.4273 0,165.7003" id="Fill-1" fill="#FEFEFE"></path>
                <polygon id="Fill-3" fill="#FEFEFE" points="36.3546 167.3986 31.1156 135.2466 36.1026 135.2466 39.1586 154.8196 39.9666 159.3676 40.7416 154.8196 45.8536 135.2466 50.6606 135.2466 56.4576 154.8196 57.4676 159.3676 58.1276 154.8196 61.2026 135.2466 65.3116 135.2466 60.1016 167.3986 55.0936 167.3986 48.9336 146.7026 47.9546 142.1546 47.8106 142.1546 46.9186 146.6736 41.5646 167.3986"></polygon>
                <path d="M91.5342,153.8004 L91.5342,139.9964 C89.6292,139.4974 87.8622,139.2474 86.2282,139.2474 C82.9232,139.2474 80.1692,140.5264 77.9672,143.0804 C75.7672,145.6354 74.6662,149.1134 74.6662,153.5124 C74.6662,156.7024 75.2662,159.1084 76.4682,160.7324 C77.6702,162.3564 79.0392,163.1674 80.5772,163.1674 C82.2492,163.1674 84.0962,162.3234 86.1132,160.6314 C88.1332,158.9404 89.9392,156.6644 91.5342,153.8004 M91.5122,160.2054 C89.8812,162.8814 87.9172,164.8994 85.6242,166.2544 C83.3302,167.6124 81.2242,168.2914 79.3032,168.2914 C76.6172,168.2914 74.2032,167.1304 72.0612,164.8084 C69.9222,162.4864 68.8522,158.9644 68.8522,154.2444 C68.8522,150.5214 69.5622,147.1964 70.9842,144.2704 C72.4072,141.3444 74.3092,139.0314 76.6912,137.3334 C79.0732,135.6354 82.0212,134.7864 85.5372,134.7864 C86.5572,134.7864 88.0892,134.8914 90.1382,135.1024 C90.4452,135.1414 90.9032,135.1894 91.5172,135.2464 L96.8882,135.2464 L96.8882,157.9504 C96.8882,161.8314 97.3002,164.9784 98.1262,167.3984 L92.5412,167.3984 C92.1102,165.6404 91.7672,163.2444 91.5122,160.2054" id="Fill-5" fill="#FEFEFE"></path>
                <path d="M108.4881,167.3986 L108.4881,135.2466 L113.8421,135.2466 L113.8421,142.2696 C115.5111,139.6216 117.4261,137.6406 119.5841,136.3256 C121.7431,135.0116 124.1471,134.3546 126.7951,134.3546 C128.7331,134.3546 130.6711,134.6516 132.6091,135.2466 L132.6091,146.8466 L127.4571,146.8466 L127.4571,139.5066 C126.5551,139.3526 125.8451,139.2766 125.3271,139.2766 C123.3311,139.2766 121.3741,140.0626 119.4551,141.6366 C117.5361,143.2106 115.6651,145.5706 113.8421,148.7176 L113.8421,167.3986 L108.4881,167.3986 Z" id="Fill-7" fill="#FEFEFE"></path>
                <path d="M138.7117,167.3986 L138.7117,135.2466 L143.4037,135.2466 L143.4037,142.6156 C144.8807,139.4876 146.2577,137.3286 147.5337,136.1386 C148.8107,134.9486 150.1007,134.3546 151.4057,134.3546 C152.9597,134.3546 154.2117,134.9636 155.1617,136.1816 C156.1117,137.4006 156.5867,139.1326 156.5867,141.3776 L156.5867,143.1046 C157.2197,141.1476 157.9827,139.5596 158.8747,138.3406 C159.7677,137.1226 160.6937,136.1536 161.6527,135.4336 C162.6127,134.7136 163.7157,134.3546 164.9627,134.3546 C166.3447,134.3546 167.5247,134.9396 168.5037,136.1096 C169.4817,137.2806 169.9717,139.6126 169.9717,143.1046 L169.9717,167.3986 L165.2797,167.3986 L165.2797,145.4366 C165.2797,143.6326 165.2217,142.3996 165.1067,141.7376 C164.9917,141.0756 164.7617,140.5716 164.4157,140.2266 C164.0707,139.8806 163.6967,139.7076 163.2937,139.7076 C162.2957,139.7076 161.2257,140.4706 160.0837,141.9966 C158.9427,143.5216 157.7767,146.0506 156.5867,149.5816 L156.5867,167.3986 L152.1247,167.3986 L152.1247,145.4646 C152.1247,142.6246 151.8467,140.9556 151.2907,140.4566 C150.7287,139.9576 150.2277,139.7076 149.7867,139.7076 C148.8027,139.7076 147.7497,140.5616 146.6227,142.2696 C145.4977,143.9776 144.4227,146.1656 143.4037,148.8326 L143.4037,167.3986 L138.7117,167.3986 Z" id="Fill-9" fill="#FEFEFE"></path>
                <path d="M181.4564,148.8447 L181.4564,162.6487 C183.3944,163.1477 185.1794,163.3977 186.8104,163.3977 C190.0534,163.3977 192.7834,162.1237 194.9994,159.5787 C197.2154,157.0337 198.3244,153.5507 198.3244,149.1327 C198.3244,145.9227 197.7194,143.5127 196.5104,141.8977 C195.3014,140.2857 193.9294,139.4777 192.3944,139.4777 C190.7254,139.4777 188.8874,140.3217 186.8824,142.0137 C184.8774,143.7047 183.0684,145.9807 181.4564,148.8447 L181.4564,148.8447 Z M181.4564,142.4757 C183.1064,139.7877 185.0734,137.7627 187.3574,136.3977 C189.6404,135.0357 191.7424,134.3537 193.6614,134.3537 C196.3474,134.3537 198.7654,135.5147 200.9144,137.8367 C203.0634,140.1587 204.1384,143.6807 204.1384,148.4007 C204.1384,152.1237 203.4234,155.4487 201.9944,158.3747 C200.5644,161.3007 198.6594,163.6137 196.2804,165.3117 C193.9004,167.0097 190.9554,167.8587 187.4434,167.8587 C186.4454,167.8587 184.9104,167.7537 182.8384,167.5427 C182.5314,167.5037 182.0704,167.4557 181.4564,167.3987 L181.4564,179.8907 L176.1024,179.8907 L176.1024,135.2467 L181.4564,135.2467 L181.4564,142.4757 Z" id="Fill-11" fill="#FEFEFE"></path>
                <path d="M220.0274,123.632 C220.0274,122.428 220.4404,121.531 221.2604,120.936 C222.0804,120.346 222.8574,120.048 223.5824,120.048 C224.3304,120.048 225.1124,120.346 225.9334,120.936 C226.7584,121.531 227.1664,122.428 227.1664,123.632 C227.1664,124.817 226.7584,125.707 225.9334,126.299 C225.1124,126.892 224.3304,127.187 223.5824,127.187 C222.8574,127.187 222.0804,126.892 221.2604,126.299 C220.4404,125.707 220.0274,124.817 220.0274,123.632 L220.0274,123.632 Z M220.8914,167.399 L220.8914,139.708 L211.9674,139.708 L211.9674,135.246 L226.2444,135.246 L226.2444,162.937 L235.1964,162.937 L235.1964,167.399 L220.8914,167.399 Z" id="Fill-13" fill="#FEFEFE"></path>
                <path d="M274.1419,166.1033 C271.6279,167.1583 269.8049,167.7873 268.6729,167.9883 C267.5409,168.1903 266.4469,168.2913 265.3919,168.2913 C263.1459,168.2913 261.0929,167.8593 259.2319,166.9953 C257.3699,166.1323 255.9689,164.8563 255.0199,163.1673 C254.0699,161.4783 253.5899,158.8693 253.5899,155.3383 L253.5899,142.3853 L245.5589,142.3853 L245.5589,137.9233 L253.5899,137.9233 L253.5899,124.9703 L258.9439,124.9703 L258.9439,137.9233 L273.2499,137.9233 L273.2499,142.3853 L258.9439,142.3853 L258.9439,155.2513 C258.9439,157.8423 259.2509,159.6703 259.8649,160.7353 C260.4789,161.8003 261.3039,162.5823 262.3309,163.0813 C263.3569,163.5803 264.5659,163.8293 265.9669,163.8293 C268.5579,163.8293 271.2829,163.0133 274.1419,161.3823 L274.1419,166.1033 Z" id="Fill-15" fill="#FEFEFE"></path>
                <path d="M294.3647,168.7515 C293.4847,168.7515 292.7297,168.4365 292.0987,167.8055 C291.4687,167.1755 291.1537,166.4205 291.1537,165.5405 C291.1537,164.6475 291.4717,163.8885 292.1087,163.2645 C292.7457,162.6405 293.4977,162.3285 294.3647,162.3285 C295.2317,162.3285 295.9837,162.6405 296.6207,163.2645 C297.2577,163.8885 297.5757,164.6475 297.5757,165.5405 C297.5757,166.4205 297.2607,167.1755 296.6307,167.8055 C295.9997,168.4365 295.2447,168.7515 294.3647,168.7515" id="Fill-17" fill="#FEFEFE"></path>
                <path d="M315.1099,137.8701 C315.1099,137.0461 315.3919,136.4321 315.9539,136.0251 C316.5149,135.6211 317.0469,135.4171 317.5429,135.4171 C318.0519,135.4171 318.5899,135.6211 319.1519,136.0251 C319.7129,136.4321 319.9959,137.0461 319.9959,137.8701 C319.9959,138.6811 319.7129,139.2901 319.1519,139.6961 C318.5899,140.1011 318.0519,140.3031 317.5429,140.3031 C317.0469,140.3031 316.5149,140.1011 315.9539,139.6961 C315.3919,139.2901 315.1099,138.6811 315.1099,137.8701 L315.1099,137.8701 Z M315.7009,167.8251 L315.7009,148.8731 L309.5939,148.8731 L309.5939,145.8191 L319.3649,145.8191 L319.3649,164.7721 L325.4919,164.7721 L325.4919,167.8251 L315.7009,167.8251 Z" id="Fill-19" fill="#FEFEFE"></path>
                <g id="Group-23" transform="translate(332.000000, 144.891000)">
                    <mask id="mask-2" fill="white">
                        <use xlink:href="#path-1"></use>
                    </mask>
                    <g id="Clip-22"></g>
                    <path d="M10.7997,20.4916 C12.7537,20.4916 14.3067,19.7296 15.4627,18.2066 C16.6147,16.6826 17.1927,14.5876 17.1927,11.9216 C17.1927,9.2686 16.6147,7.1806 15.4627,5.6566 C14.3067,4.1336 12.7537,3.3716 10.7997,3.3716 C8.8327,3.3716 7.2737,4.1336 6.1177,5.6566 C4.9647,7.1806 4.3867,9.2686 4.3867,11.9216 C4.3867,14.5876 4.9647,16.6826 6.1177,18.2066 C7.2737,19.7296 8.8327,20.4916 10.7997,20.4916 M10.7997,23.5456 C7.6507,23.5456 5.1327,22.4456 3.2407,20.2456 C1.3527,18.0456 0.4077,15.2706 0.4077,11.9216 C0.4077,8.5726 1.3527,5.8016 3.2407,3.6076 C5.1327,1.4146 7.6507,0.3176 10.7997,0.3176 C13.9357,0.3176 16.4477,1.4146 18.3387,3.6076 C20.2267,5.8016 21.1727,8.5726 21.1727,11.9216 C21.1727,15.2706 20.2267,18.0456 18.3387,20.2456 C16.4477,22.4456 13.9357,23.5456 10.7997,23.5456" id="Fill-21" fill="#FEFEFE" mask="url(#mask-2)"></path>
                </g>
                <g id="Group-26" transform="translate(124.000000, 0.891000)">
                    <mask id="mask-4" fill="white">
                        <use xlink:href="#path-3"></use>
                    </mask>
                    <g id="Clip-25"></g>
                    <path d="M79.8772,87.8637 L35.0352,87.8637 L12.6152,49.0297 L35.0352,10.1957 L79.8772,10.1957 L102.2982,49.0297 L79.8772,87.8637 Z M85.7012,0.1087 L29.2122,0.1087 L0.9672,49.0297 L29.2122,97.9507 L85.7012,97.9507 L113.9452,49.0297 L85.7012,0.1087 Z" id="Fill-24" fill="#FEFEFE" mask="url(#mask-4)"></path>
                </g>
                <polygon id="Fill-27" fill="#FEFEFE" points="165.4433 23.8385 150.2583 50.1385 149.9553 50.1385 165.1403 76.4395 180.3243 50.1385 180.6273 50.1385"></polygon>
                <polygon id="Fill-29" fill="#FEFEFE" points="211.7527 51.249 181.5797 51.249 181.4567 51.035 166.2717 77.336 196.4447 77.336 196.5677 77.549"></polygon>
                <polygon id="Fill-31" fill="#FEFEFE" points="197.0867 23.5233 197.1597 23.3973 166.7907 23.3973 181.9017 49.5713 181.8297 49.6973 212.1987 49.6973"></polygon>
            </g>
        </g>
    </g>
</svg>