<?xml version="1.0" encoding="UTF-8"?>
<svg width="415px" height="60px" viewBox="0 0 415 60" version="1.1" xmlns="http://www.w3.org/2000/svg" xmlns:xlink="http://www.w3.org/1999/xlink">
    <!-- Generator: Sketch 43.1 (39012) - http://www.bohemiancoding.com/sketch -->
    <title>Artboard</title>
    <desc>Created with Sketch.</desc>
    <defs>
        <polygon id="path-1" points="20.962 0.3176 20.962 23.5456 0.1977 23.5456 0.1977 0.3176 20.962 0.3176"></polygon>
        <polygon id="path-3" points="0 0.7022 0 44.5932 50.6816 44.5932 50.6816 0.7022 5.42101086e-20 0.7022"></polygon>
    </defs>
    <g id="Page-1" stroke="none" stroke-width="1" fill="none" fill-rule="evenodd">
        <g id="Artboard">
            <g id="Page-1">
                <path d="M61.79,45.6519 L61.79,39.9809 C63.939,41.3819 66.213,42.3659 68.612,42.9319 C71.011,43.4979 73.045,43.7809 74.714,43.7809 C77.42,43.7809 79.368,43.3439 80.557,42.4709 C81.747,41.5979 82.342,40.5089 82.342,39.2039 C82.342,38.3409 82.064,37.6019 81.507,36.9879 C80.951,36.3739 79.569,35.6159 77.362,34.7139 L75.52,33.9659 L71.807,32.4979 C67.816,30.9429 65.302,29.5039 64.265,28.1799 C63.21,26.8749 62.682,25.2819 62.682,23.4019 C62.682,20.7539 63.704,18.5759 65.753,16.8679 C67.799,15.1599 71.116,14.3059 75.71,14.3059 C79.149,14.3059 82.404,14.8049 85.479,15.8029 L85.479,20.6669 C81.944,19.4009 78.617,18.7669 75.503,18.7669 C73.234,18.7669 71.462,19.1659 70.183,19.9619 C68.905,20.7579 68.266,21.7509 68.266,22.9409 C68.266,24.0929 68.823,25.0139 69.936,25.7039 C71.03,26.3949 72.817,27.1919 75.295,28.0939 L78.926,29.4179 C82.248,30.6269 84.58,31.9409 85.918,33.3609 C87.257,34.7809 87.926,36.5559 87.926,38.6859 C87.926,41.4689 86.856,43.7569 84.717,45.5509 C82.577,47.3449 79.157,48.2429 74.455,48.2429 C70.349,48.2429 66.127,47.3789 61.79,45.6519" id="Fill-1" fill="#FEFEFE"></path>
                <polygon id="Fill-3" fill="#FEFEFE" points="98.1446 47.3502 92.9056 15.1982 97.8926 15.1982 100.9486 34.7712 101.7566 39.3192 102.5316 34.7712 107.6436 15.1982 112.4506 15.1982 118.2476 34.7712 119.2576 39.3192 119.9176 34.7712 122.9926 15.1982 127.1016 15.1982 121.8916 47.3502 116.8836 47.3502 110.7236 26.6542 109.7446 22.1062 109.6006 22.1062 108.7086 26.6252 103.3546 47.3502"></polygon>
                <path d="M153.3242,33.752 L153.3242,19.948 C151.4192,19.449 149.6522,19.199 148.0182,19.199 C144.7132,19.199 141.9592,20.478 139.7572,23.032 C137.5572,25.587 136.4562,29.065 136.4562,33.464 C136.4562,36.654 137.0562,39.06 138.2582,40.684 C139.4602,42.308 140.8292,43.119 142.3672,43.119 C144.0392,43.119 145.8862,42.275 147.9032,40.583 C149.9232,38.892 151.7292,36.616 153.3242,33.752 M153.3022,40.157 C151.6712,42.833 149.7072,44.851 147.4142,46.206 C145.1202,47.564 143.0142,48.243 141.0932,48.243 C138.4072,48.243 135.9932,47.082 133.8512,44.76 C131.7122,42.438 130.6422,38.916 130.6422,34.196 C130.6422,30.473 131.3522,27.148 132.7742,24.222 C134.1972,21.296 136.0992,18.983 138.4812,17.285 C140.8632,15.587 143.8112,14.738 147.3272,14.738 C148.3472,14.738 149.8792,14.843 151.9282,15.054 C152.2352,15.093 152.6932,15.141 153.3072,15.198 L158.6782,15.198 L158.6782,37.902 C158.6782,41.783 159.0902,44.93 159.9162,47.35 L154.3312,47.35 C153.9002,45.592 153.5572,43.196 153.3022,40.157" id="Fill-5" fill="#FEFEFE"></path>
                <path d="M170.2782,47.3502 L170.2782,15.1982 L175.6322,15.1982 L175.6322,22.2212 C177.3012,19.5732 179.2162,17.5922 181.3742,16.2772 C183.5332,14.9632 185.9372,14.3062 188.5852,14.3062 C190.5232,14.3062 192.4612,14.6032 194.3992,15.1982 L194.3992,26.7982 L189.2472,26.7982 L189.2472,19.4582 C188.3452,19.3042 187.6352,19.2282 187.1172,19.2282 C185.1212,19.2282 183.1642,20.0142 181.2452,21.5882 C179.3262,23.1622 177.4552,25.5222 175.6322,28.6692 L175.6322,47.3502 L170.2782,47.3502 Z" id="Fill-7" fill="#FEFEFE"></path>
                <path d="M200.5017,47.3502 L200.5017,15.1982 L205.1937,15.1982 L205.1937,22.5672 C206.6707,19.4392 208.0477,17.2802 209.3237,16.0902 C210.5997,14.9002 211.8907,14.3062 213.1957,14.3062 C214.7497,14.3062 216.0017,14.9152 216.9517,16.1332 C217.9017,17.3522 218.3767,19.0842 218.3767,21.3292 L218.3767,23.0562 C219.0097,21.0992 219.7727,19.5112 220.6647,18.2922 C221.5577,17.0742 222.4837,16.1052 223.4427,15.3852 C224.4027,14.6652 225.5057,14.3062 226.7527,14.3062 C228.1347,14.3062 229.3147,14.8912 230.2937,16.0612 C231.2717,17.2322 231.7617,19.5642 231.7617,23.0562 L231.7617,47.3502 L227.0697,47.3502 L227.0697,25.3882 C227.0697,23.5842 227.0117,22.3512 226.8967,21.6892 C226.7817,21.0272 226.5517,20.5232 226.2057,20.1782 C225.8607,19.8322 225.4867,19.6592 225.0837,19.6592 C224.0857,19.6592 223.0157,20.4222 221.8737,21.9482 C220.7327,23.4732 219.5667,26.0022 218.3767,29.5332 L218.3767,47.3502 L213.9147,47.3502 L213.9147,25.4162 C213.9147,22.5762 213.6367,20.9072 213.0807,20.4082 C212.5187,19.9092 212.0177,19.6592 211.5767,19.6592 C210.5927,19.6592 209.5397,20.5132 208.4127,22.2212 C207.2877,23.9292 206.2127,26.1172 205.1937,28.7842 L205.1937,47.3502 L200.5017,47.3502 Z" id="Fill-9" fill="#FEFEFE"></path>
                <path d="M243.2464,28.7963 L243.2464,42.6003 C245.1844,43.0993 246.9694,43.3493 248.6004,43.3493 C251.8434,43.3493 254.5734,42.0753 256.7894,39.5303 C259.0054,36.9853 260.1144,33.5023 260.1144,29.0843 C260.1144,25.8743 259.5094,23.4643 258.3004,21.8493 C257.0914,20.2373 255.7194,19.4293 254.1844,19.4293 C252.5154,19.4293 250.6774,20.2733 248.6724,21.9653 C246.6674,23.6563 244.8584,25.9323 243.2464,28.7963 L243.2464,28.7963 Z M243.2464,22.4273 C244.8964,19.7393 246.8634,17.7143 249.1474,16.3493 C251.4304,14.9873 253.5324,14.3053 255.4514,14.3053 C258.1374,14.3053 260.5554,15.4663 262.7044,17.7883 C264.8534,20.1103 265.9284,23.6323 265.9284,28.3523 C265.9284,32.0753 265.2134,35.4003 263.7844,38.3263 C262.3544,41.2523 260.4494,43.5653 258.0704,45.2633 C255.6904,46.9613 252.7454,47.8103 249.2334,47.8103 C248.2354,47.8103 246.7004,47.7053 244.6284,47.4943 C244.3214,47.4553 243.8604,47.4073 243.2464,47.3503 L243.2464,59.8423 L237.8924,59.8423 L237.8924,15.1983 L243.2464,15.1983 L243.2464,22.4273 Z" id="Fill-11" fill="#FEFEFE"></path>
                <path d="M281.8174,3.5836 C281.8174,2.3796 282.2304,1.4826 283.0504,0.8876 C283.8704,0.2976 284.6474,-0.0004 285.3724,-0.0004 C286.1204,-0.0004 286.9024,0.2976 287.7234,0.8876 C288.5484,1.4826 288.9564,2.3796 288.9564,3.5836 C288.9564,4.7686 288.5484,5.6586 287.7234,6.2506 C286.9024,6.8436 286.1204,7.1386 285.3724,7.1386 C284.6474,7.1386 283.8704,6.8436 283.0504,6.2506 C282.2304,5.6586 281.8174,4.7686 281.8174,3.5836 L281.8174,3.5836 Z M282.6814,47.3506 L282.6814,19.6596 L273.7574,19.6596 L273.7574,15.1976 L288.0344,15.1976 L288.0344,42.8886 L296.9864,42.8886 L296.9864,47.3506 L282.6814,47.3506 Z" id="Fill-13" fill="#FEFEFE"></path>
                <path d="M335.9319,46.0549 C333.4179,47.1099 331.5949,47.7389 330.4629,47.9399 C329.3309,48.1419 328.2369,48.2429 327.1819,48.2429 C324.9359,48.2429 322.8829,47.8109 321.0219,46.9469 C319.1599,46.0839 317.7589,44.8079 316.8099,43.1189 C315.8599,41.4299 315.3799,38.8209 315.3799,35.2899 L315.3799,22.3369 L307.3489,22.3369 L307.3489,17.8749 L315.3799,17.8749 L315.3799,4.9219 L320.7339,4.9219 L320.7339,17.8749 L335.0399,17.8749 L335.0399,22.3369 L320.7339,22.3369 L320.7339,35.2029 C320.7339,37.7939 321.0409,39.6219 321.6549,40.6869 C322.2689,41.7519 323.0939,42.5339 324.1209,43.0329 C325.1469,43.5319 326.3559,43.7809 327.7569,43.7809 C330.3479,43.7809 333.0729,42.9649 335.9319,41.3339 L335.9319,46.0549 Z" id="Fill-15" fill="#FEFEFE"></path>
                <path d="M356.1548,48.7031 C355.2748,48.7031 354.5198,48.3881 353.8888,47.7571 C353.2588,47.1271 352.9438,46.3721 352.9438,45.4921 C352.9438,44.5991 353.2618,43.8401 353.8988,43.2161 C354.5358,42.5921 355.2878,42.2801 356.1548,42.2801 C357.0218,42.2801 357.7738,42.5921 358.4108,43.2161 C359.0478,43.8401 359.3658,44.5991 359.3658,45.4921 C359.3658,46.3721 359.0508,47.1271 358.4208,47.7571 C357.7898,48.3881 357.0348,48.7031 356.1548,48.7031" id="Fill-17" fill="#FEFEFE"></path>
                <path d="M376.8999,17.8217 C376.8999,16.9977 377.1819,16.3837 377.7439,15.9767 C378.3049,15.5727 378.8369,15.3687 379.3329,15.3687 C379.8419,15.3687 380.3809,15.5727 380.9419,15.9767 C381.5029,16.3837 381.7859,16.9977 381.7859,17.8217 C381.7859,18.6327 381.5029,19.2417 380.9419,19.6477 C380.3809,20.0527 379.8419,20.2547 379.3329,20.2547 C378.8369,20.2547 378.3049,20.0527 377.7439,19.6477 C377.1819,19.2417 376.8999,18.6327 376.8999,17.8217 L376.8999,17.8217 Z M377.4909,47.7767 L377.4909,28.8247 L371.3839,28.8247 L371.3839,25.7707 L381.1549,25.7707 L381.1549,44.7237 L387.2819,44.7237 L387.2819,47.7767 L377.4909,47.7767 Z" id="Fill-19" fill="#FEFEFE"></path>
                <g id="Group-23" transform="translate(394.000000, 24.842600)">
                    <mask id="mask-2" fill="white">
                        <use xlink:href="#path-1"></use>
                    </mask>
                    <g id="Clip-22"></g>
                    <path d="M10.5897,20.4916 C12.5437,20.4916 14.0967,19.7296 15.2527,18.2066 C16.4047,16.6826 16.9827,14.5876 16.9827,11.9216 C16.9827,9.2686 16.4047,7.1806 15.2527,5.6566 C14.0967,4.1336 12.5437,3.3716 10.5897,3.3716 C8.6227,3.3716 7.0637,4.1336 5.9077,5.6566 C4.7547,7.1806 4.1767,9.2686 4.1767,11.9216 C4.1767,14.5876 4.7547,16.6826 5.9077,18.2066 C7.0637,19.7296 8.6227,20.4916 10.5897,20.4916 M10.5897,23.5456 C7.4407,23.5456 4.9227,22.4456 3.0307,20.2456 C1.1427,18.0456 0.1977,15.2706 0.1977,11.9216 C0.1977,8.5726 1.1427,5.8016 3.0307,3.6076 C4.9227,1.4146 7.4407,0.3176 10.5897,0.3176 C13.7257,0.3176 16.2377,1.4146 18.1287,3.6076 C20.0167,5.8016 20.9627,8.5726 20.9627,11.9216 C20.9627,15.2706 20.0167,18.0456 18.1287,20.2456 C16.2377,22.4456 13.7257,23.5456 10.5897,23.5456" id="Fill-21" fill="#FEFEFE" mask="url(#mask-2)"></path>
                </g>
                <g id="Group-26" transform="translate(0.000000, 8.842600)">
                    <mask id="mask-4" fill="white">
                        <use xlink:href="#path-3"></use>
                    </mask>
                    <g id="Clip-25"></g>
                    <path d="M35.3986,40.0682 L15.2826,40.0682 L5.2246,22.6472 L15.2826,5.2262 L35.3986,5.2262 L45.4566,22.6472 L35.3986,40.0682 Z M38.0106,0.7022 L12.6706,0.7022 L-0.0004,22.6472 L12.6706,44.5932 L38.0106,44.5932 L50.6816,22.6472 L38.0106,0.7022 Z" id="Fill-24" fill="#FEFEFE" mask="url(#mask-4)"></path>
                </g>
                <polygon id="Fill-27" fill="#FEFEFE" points="18.1573 19.7897 11.3453 31.5877 11.2093 31.5877 18.0213 43.3857 24.8333 31.5877 24.9693 31.5877"></polygon>
                <polygon id="Fill-29" fill="#FEFEFE" points="38.9315 32.0859 25.3965 32.0859 25.3405 31.9899 18.5285 43.7879 32.0645 43.7879 32.1195 43.8839"></polygon>
                <polygon id="Fill-31" fill="#FEFEFE" points="32.3524 19.6483 32.3854 19.5923 18.7614 19.5923 25.5404 31.3333 25.5084 31.3903 39.1314 31.3903"></polygon>
            </g>
        </g>
    </g>
</svg>